<svg width="249" height="34" viewBox="0 0 249 34" fill="none" xmlns="http://www.w3.org/2000/svg">
<path d="M0.48 33L8.04 1H17.96L25.52 33H19.44L13.12 5.4H12.52L6.2 33H0.48ZM5.68 23.12V17.44H20.32V23.12H5.68ZM29.7278 1H35.7278V21.76C35.7278 23.7867 36.1945 25.3733 37.1278 26.52C38.0878 27.64 39.4211 28.2 41.1278 28.2C42.8345 28.2 44.1545 27.6267 45.0878 26.48C46.0478 25.3333 46.5278 23.72 46.5278 21.64V1H52.2878V22C52.2878 25.76 51.3145 28.6533 49.3678 30.68C47.4478 32.7067 44.6611 33.72 41.0078 33.72C37.3545 33.72 34.5545 32.7067 32.6078 30.68C30.6878 28.6533 29.7278 25.76 29.7278 22V1ZM66.0156 33V6.68H56.8156V1H81.2156V6.68H72.0156V33H66.0156ZM97.0234 33.72C92.9701 33.72 89.9034 32.32 87.8234 29.52C85.7701 26.6933 84.7434 22.52 84.7434 17C84.7434 11.48 85.7701 7.32 87.8234 4.52C89.9034 1.69333 92.9701 0.279999 97.0234 0.279999C101.077 0.279999 104.13 1.69333 106.183 4.52C108.263 7.32 109.303 11.48 109.303 17C109.303 22.52 108.263 26.6933 106.183 29.52C104.13 32.32 101.077 33.72 97.0234 33.72ZM97.0234 28.2C99.1568 28.2 100.73 27.2933 101.743 25.48C102.783 23.64 103.303 20.8133 103.303 17C103.303 13.1867 102.783 10.3733 101.743 8.56C100.73 6.72 99.1568 5.8 97.0234 5.8C94.8901 5.8 93.3034 6.72 92.2634 8.56C91.2501 10.3733 90.7434 13.1867 90.7434 17C90.7434 20.8133 91.2501 23.64 92.2634 25.48C93.3034 27.2933 94.8901 28.2 97.0234 28.2Z" fill="#333333"/>
<path d="M122.031 33V6.68H112.831V1H137.231V6.68H128.031V33H122.031ZM142.719 33V1H154.559C156.692 1 158.546 1.4 160.119 2.2C161.692 2.97333 162.906 4.09333 163.759 5.56C164.639 7.02666 165.079 8.74667 165.079 10.72C165.079 12.5333 164.639 14.1333 163.759 15.52C162.879 16.9067 161.639 17.9867 160.039 18.76C158.466 19.5333 156.639 19.92 154.559 19.92H148.719V33H142.719ZM159.119 33L150.919 18.92H157.319L165.879 33H159.119ZM148.719 14.84H154.479C155.892 14.84 157.012 14.4667 157.839 13.72C158.666 12.9733 159.079 11.9867 159.079 10.76C159.079 9.50666 158.666 8.50666 157.839 7.76C157.012 7.01333 155.892 6.64 154.479 6.64H148.719V14.84ZM168.527 33L176.087 1H186.007L193.567 33H187.487L181.167 5.4H180.567L174.247 33H168.527ZM173.727 23.12V17.44H188.367V23.12H173.727ZM197.895 33V1H207.495L214.615 28.64H215.255L214.935 17.48V1H220.215V33H210.615L203.495 5.36H202.855L203.175 16.52V33H197.895ZM231.743 24.44C232.116 25.6933 232.769 26.64 233.703 27.28C234.663 27.92 235.889 28.24 237.383 28.24C238.956 28.24 240.196 27.8667 241.103 27.12C242.009 26.3467 242.463 25.2933 242.463 23.96C242.463 22.9733 242.143 22.16 241.503 21.52C240.863 20.88 239.956 20.48 238.783 20.32L234.943 19.72C232.143 19.2667 229.996 18.24 228.503 16.64C227.036 15.0133 226.303 12.88 226.303 10.24C226.303 8.18667 226.756 6.42667 227.663 4.96C228.596 3.46667 229.903 2.32 231.583 1.52C233.263 0.693332 235.236 0.279999 237.503 0.279999C239.796 0.279999 241.769 0.679999 243.423 1.48C245.103 2.28 246.423 3.42667 247.383 4.92C248.343 6.41333 248.876 8.22667 248.983 10.36H243.343C242.969 8.86667 242.289 7.73333 241.303 6.96C240.316 6.16 239.049 5.76 237.503 5.76C235.849 5.76 234.543 6.14667 233.583 6.92C232.623 7.69333 232.143 8.76 232.143 10.12C232.143 11.08 232.463 11.88 233.103 12.52C233.769 13.16 234.689 13.5733 235.863 13.76L239.663 14.36C242.489 14.7867 244.636 15.8133 246.103 17.44C247.596 19.0667 248.343 21.2 248.343 23.84C248.343 25.84 247.889 27.5867 246.983 29.08C246.103 30.5467 244.836 31.6933 243.183 32.52C241.529 33.32 239.583 33.72 237.343 33.72C235.103 33.72 233.143 33.36 231.463 32.64C229.809 31.8933 228.503 30.8267 227.543 29.44C226.609 28.0533 226.076 26.3867 225.943 24.44H231.743Z" fill="#634CC9"/>
</svg>
